The Slamming Salmon

source:

The.Slammin.Salmon.2009.LiMiTED.720p.BluRay.x264-SiNNERS 
http://www.imdb.com/title/tt1135525/

ID                               : 1
Format                           : AVC
Format/Info                      : Advanced Video Codec
Format profile                   : Baseline@L2.1
Format settings, CABAC           : No
Format settings, ReFrames        : 3 frames
Codec ID                         : avc1
Codec ID/Info                    : Advanced Video Coding
Duration                         : 1h 38mn
Bit rate mode                    : Variable
Bit rate                         : 400 Kbps
Width                            : 480 pixels
Height                           : 272 pixels
Display aspect ratio             : 16:9
Frame rate mode                  : Variable
Frame rate                       : 23.976 fps
Minimum frame rate               : 23.974 fps
Maximum frame rate               : 23.981 fps
Color space                      : YUV
Chroma subsampling               : 4:2:0
Bit depth                        : 8 bits
Scan type                        : Progressive
Bits/(Pixel*Frame)               : 0.128
Stream size                      : 282 MiB (75%)
Writing library                  : x264 core 79

ID                               : 2
Format                           : AAC
Format/Info                      : Advanced Audio Codec
Format version                   : Version 4
Format profile                   : LC
Format settings, SBR             : No
Codec ID                         : 40
Duration                         : 1h 38mn
Bit rate mode                    : Variable
Bit rate                         : 128 Kbps
Maximum bit rate                 : 193 Kbps
Channel(s)                       : 2 channels
Channel positions                : Front: L R
Sampling rate                    : 48.0 KHz
Stream size                      : 89.9 MiB (24%)
 
http://img409.imageshack.us/img409/7416/vlcsnap00001.png 
http://img171.imageshack.us/img171/6350/vlcsnap00002y.png 
http://img252.imageshack.us/img252/7278/vlcsnap00003n.png 
http://img189.imageshack.us/img189/607/vlcsnap00004k.png 
http://img18.imageshack.us/img18/6604/vlcsnap00005dm.png 
http://img265.imageshack.us/img265/3051/vlcsnap00006z.png 
http://img709.imageshack.us/img709/4292/vlcsnap00007o.png 
http://img257.imageshack.us/img257/4205/vlcsnap00008q.png






PLEASE LET THE TORRENT SEED AND SHARE IT WITH ALL YOU KNOW!

Let me know what I can do to be your trusted source of Handheld videos.





-OOO (on.off.on)

